#!OML:ASF F:\twosubjects\two\Thursday\Session 1\Rory.ASF
:FULLY-SPECIFIED
:DEGREES
505
root 7.68394 10.2781 12.8772 143.05 -11.12 189.487
lowerback 39.4477 11.9474 -2.88353
upperback 17.4077 7.15078 -1.70109
thorax 0.20548 0.554343 -2.69651
lowerneck -3.92367 -12.1699 -13.7512
upperneck -7.16351 -16.6018 26.4109
head 2.21779 -8.86099 9.45413
rclavicle 9.54166e-015 6.36111e-015
rhumerus -2.94842 19.5061 -76.8399
rradius 67.9968
rwrist 0.216787
rhand -35.62 38.3437
rfingers 7.12502
rthumb -8.74309 8.54481
lclavicle 9.54166e-015 6.36111e-015
lhumerus 9.09151 -24.857 55.807
lradius 86.8622
lwrist -6.56061
lhand -4.67436 16.4941
lfingers 7.12502
lthumb 21.1063 45.3654
rfemur -50.4595 8.28883 3.3559
rtibia 88.783
rfoot 5.57543 -3.76202
rtoes -5.3651
lfemur -49.3475 22.9881 13.476
ltibia 69.8921
lfoot 22.6419 -1.04736
ltoes 18.4143
506
root 7.68727 10.2801 12.8777 142.804 -11.23 189.311
lowerback 39.7135 12.203 -3.04527
upperback 17.5052 7.34793 -1.40533
thorax 0.188254 0.59109 -2.38649
lowerneck -4.01058 -12.3654 -14.0036
upperneck -7.23693 -16.8071 26.228
head 2.25406 -8.94017 9.40046
rclavicle 5.88403e-014 -1.145e-013
rhumerus -2.83532 19.4334 -76.363
rradius 68.2198
rwrist -0.0991081
rhand -35.8192 38.8231
rfingers 7.12502
rthumb -8.93536 9.03227
lclavicle 5.88403e-014 -1.145e-013
lhumerus 9.20872 -24.9893 56.2611
lradius 86.7443
lwrist -6.97163
lhand -5.10029 16.411
lfingers 7.12502
lthumb 20.6971 45.3273
rfemur -50.428 8.20871 3.58383
rtibia 89.5052
rfoot 5.88107 -3.35462
rtoes -13.1424
lfemur -49.0252 22.8208 13.3612
ltibia 69.8707
lfoot 22.6508 -1.1494
ltoes 18.6546
507
root 7.68528 10.2779 12.8738 142.43 -11.0673 189.669
lowerback 40.0593 12.0934 -2.34752
upperback 17.5921 7.38577 -1.30657
thorax 0.246517 0.623183 -2.65256
lowerneck -4.31851 -12.4244 -14.2015
upperneck -7.03328 -16.8851 26.3166
head 2.40855 -8.94388 9.42021
rclavicle -9.54166e-015 6.67916e-014
rhumerus -2.75695 19.2977 -76.3602
rradius 68.4245
rwrist -0.182118
rhand -36.293 39.6526
rfingers 7.12502
rthumb -9.39255 9.88185
lclavicle -9.54166e-015 6.67916e-014
lhumerus 9.43199 -25.1445 56.2366
lradius 86.7062
lwrist -6.99353
lhand -5.66663 16.6762
lfingers 7.12502
lthumb 20.1528 45.6509
rfemur -50.2263 7.97415 4.51612
rtibia 90.2921
rfoot 3.63995 -7.04305
rtoes 5.01981
lfemur -48.8068 22.7084 13.8942
ltibia 69.9338
lfoot 22.6762 -1.20209
ltoes 19.3864
508
root 7.6837 10.2656 12.8631 142.02 -10.894 190.022
lowerback 40.0312 12.2571 -2.29153
upperback 17.893 7.56008 -0.722401
thorax 0.523117 0.629166 -2.12266
lowerneck -4.81804 -12.473 -14.5721
upperneck -6.87829 -16.876 26.1099
head 2.5444 -8.87722 9.37357
rclavicle -8.74653e-014 3.18055e-015
rhumerus -2.40231 19.5484 -75.7348
rradius 68.693
rwrist -0.266609
rhand -36.3492 39.8981
rfingers 7.12502
rthumb -9.44673 10.1298
lclavicle -8.74653e-014 3.18055e-015
lhumerus 9.70376 -24.7584 56.8125
lradius 86.4538
lwrist -7.14212
lhand -5.8197 16.7818
lfingers 7.12502
lthumb 20.0057 45.7719
rfemur -49.9724 7.9915 5.45862
rtibia 91.1634
rfoot 4.16349 -7.65229
rtoes 0.143411
lfemur -48.5805 22.6482 14.4617
ltibia 70.0136
lfoot 22.6775 -1.17979
ltoes 19.7999
509
root 7.68829 10.2553 12.8485 141.793 -10.7531 190.149
lowerback 41.5242 11.5966 -1.36816
upperback 16.9697 7.03916 -1.72069
thorax -0.720192 0.554085 -3.52251
lowerneck -4.69879 -12.23 -14.0056
upperneck -6.03934 -16.7381 26.1712
head 2.69018 -8.78755 9.31205
rclavicle 3.81667e-014 -6.04305e-014
rhumerus -3.56622 19.5932 -77.7359
rradius 69.1113
rwrist -0.0255573
rhand -35.4395 38.7056
rfingers 7.12502
rthumb -8.56894 8.89951
lclavicle 3.81667e-014 -6.04305e-014
lhumerus 8.82833 -25.2398 55.6618
lradius 86.5041
lwrist -7.05421
lhand -6.0106 16.8331
lfingers 7.12502
lthumb 19.8222 45.8423
rfemur -49.8959 8.03033 6.21067
rtibia 92.0547
rfoot 4.02305 -8.25718
rtoes -6.71931
lfemur -48.3666 22.7403 14.7988
ltibia 70.0423
lfoot 22.7485 -1.45768
ltoes 19.5638
510
root 7.69888 10.2649 12.8413 141.808 -10.6706 190.116
lowerback 41.4874 11.5385 -1.12968
upperback 16.9735 7.03716 -1.9338
thorax -0.655917 0.580196 -3.86189
lowerneck -4.68345 -12.1494 -13.8392
upperneck -6.10332 -16.6387 26.2044
head 2.6385 -8.75223 9.3141
rclavicle 4.92986e-014 -2.8625e-014
rhumerus -3.59422 19.2151 -78.2318
rradius 69.4446
rwrist 0.459419
rhand -34.554 37.1934
rfingers 7.12502
rthumb -7.71427 7.35413
lclavicle 4.92986e-014 -2.8625e-014
lhumerus 8.89486 -25.3425 55.2964
lradius 86.5995
lwrist -7.09421
lhand -6.24229 17.0463
lfingers 7.12502
lthumb 19.5994 46.0783
rfemur -50.0279 7.84953 6.81742
rtibia 92.922
rfoot 3.57226 -9.9999
rtoes -5.69862
lfemur -48.199 22.8729 14.9223
ltibia 69.9759
lfoot 22.7291 -1.48721
ltoes 20.2159
511
root 7.71648 10.2833 12.8387 142.058 -10.9802 189.488
lowerback 41.2652 11.8522 -1.67654
upperback 17.0544 7.1947 -2.09586
thorax -0.531554 0.624831 -3.80818
lowerneck -4.55864 -12.1113 -13.7381
upperneck -6.49084 -16.5621 26.3357
head 2.49861 -8.75662 9.37046
rclavicle -3.65764e-014 2.22639e-014
rhumerus -3.60904 18.617 -78.466
rradius 69.7305
rwrist 0.789831
rhand -34.2657 37.4979
rfingers 7.12502
rthumb -7.43608 7.64857
lclavicle -3.65764e-014 2.22639e-014
lhumerus 9.21539 -25.5369 55.0334
lradius 86.6534
lwrist -7.27221
lhand -6.10969 17.0412
lfingers 7.12502
lthumb 19.7269 46.0602
rfemur -50.391 7.50684 6.59452
rtibia 93.8686
rfoot 3.3618 -10.8925
rtoes -3.93202
lfemur -48.059 22.911 14.2679
ltibia 69.8671
lfoot 22.6122 -0.926578
ltoes 21.773
512
root 7.72703 10.296 12.8314 142.247 -11.2669 188.955
lowerback 41.5893 11.9916 -2.20419
upperback 16.7859 7.1608 -2.30038
thorax -0.950018 0.602665 -3.77202
lowerneck -4.51111 -12.0661 -13.7811
upperneck -6.513 -16.4979 26.3321
head 2.47484 -8.72745 9.38957
rclavicle -9.54166e-015 -6.36111e-014
rhumerus -4.04012 18.5753 -78.8413
rradius 70.1898
rwrist 0.549575
rhand -33.8942 38.3236
rfingers 7.12502
rthumb -7.07749 8.46189
lclavicle -9.54166e-015 -6.36111e-014
lhumerus 8.96754 -25.701 54.823
lradius 86.7153
lwrist -7.38657
lhand -6.29372 17.0775
lfingers 7.12502
lthumb 19.55 46.1146
rfemur -50.6809 7.07647 6.42984
rtibia 94.817
rfoot 1.90891 -12.6029
rtoes 7.68251
lfemur -47.9341 22.9164 13.6895
ltibia 69.8014
lfoot 22.5012 -0.592577
ltoes 22.3229
513
root 7.72632 10.2973 12.8214 142.216 -11.5352 188.651
lowerback 42.0054 11.9539 -2.5239
upperback 16.682 6.93136 -2.33874
thorax -1.21691 0.463126 -3.59594
lowerneck -4.77269 -12.0206 -14.0393
upperneck -6.40841 -16.3847 26.1041
head 2.52283 -8.63218 9.35295
rclavicle -7.79236e-014 -5.725e-014
rhumerus -3.9783 19.1239 -78.8418
rradius 70.3929
rwrist 0.482644
rhand -33.7188 38.3929
rfingers 7.12502
rthumb -6.90814 8.52558
lclavicle -7.79236e-014 -5.725e-014
lhumerus 8.57786 -25.4276 54.8197
lradius 86.8695
lwrist -7.26142
lhand -6.71588 17.1809
lfingers 7.12502
lthumb 19.1441 46.2587
rfemur -50.6756 6.60138 6.4924
rtibia 95.7506
rfoot 1.52934 -13.3776
rtoes 7.42264
lfemur -47.8188 22.7703 13.2858
ltibia 69.79
lfoot 22.4156 -0.883012
ltoes 20.5881
514
root 7.72525 10.2911 12.8108 142.014 -11.9666 188.231
lowerback 42.4964 11.9253 -2.642
upperback 16.7423 6.70684 -2.4633
thorax -1.28835 0.314052 -3.61158
lowerneck -4.87785 -12.0433 -14.132
upperneck -6.54829 -16.3661 25.9687
head 2.4897 -8.61847 9.32314
rclavicle -1.43125e-014 -4.13472e-014
rhumerus -3.73227 19.2642 -78.9468
rradius 70.3651
rwrist 0.93655
rhand -34.1161 37.5481
rfingers 7.12502
rthumb -7.2916 7.69375
lclavicle -1.43125e-014 -4.13472e-014
lhumerus 8.48019 -25.304 54.732
lradius 87.0171
lwrist -7.17885
lhand -7.04233 18.2034
lfingers 7.12502
lthumb 18.8301 47.3119
rfemur -50.4476 6.23233 6.33803
rtibia 96.7529
rfoot 1.27686 -14.0849
rtoes 4.54604
lfemur -47.5957 22.4614 12.736
ltibia 69.799
lfoot 22.4251 -1.45122
ltoes 18.177
515
root 7.72721 10.2988 12.8108 141.66 -12.0656 188.201
lowerback 43.5623 11.6681 -1.94885
upperback 16.3765 6.55128 -2.82738
thorax -1.8814 0.299864 -4.32729
lowerneck -4.50885 -12.0662 -13.8992
upperneck -6.50154 -16.4416 25.9164
head 2.42828 -8.67618 9.28235
rclavicle 1.43125e-014 -1.27222e-014
rhumerus -4.22271 18.837 -79.7245
rradius 70.4586
rwrist 1.44817
rhand -34.7738 36.9611
rfingers 7.12502
rthumb -7.92649 7.12971
lclavicle 1.43125e-014 -1.27222e-014
lhumerus 8.32648 -25.9356 54.4158
lradius 86.974
lwrist -7.24554
lhand -7.53218 19.1085
lfingers 7.12502
lthumb 18.3589 48.2621
rfemur -50.0952 6.02623 6.79149
rtibia 97.6117
rfoot 0.237685 -15.3586
rtoes 7.95548
lfemur -47.1606 22.1837 12.8105
ltibia 69.7379
lfoot 22.4286 -1.72352
ltoes 17.4264
516
root 7.73085 10.3144 12.8204 141.425 -12.1356 188.15
lowerback 44.196 11.4944 -1.52273
upperback 16.2187 6.42906 -3.01087
thorax -2.17032 0.264655 -4.71286
lowerneck -4.18978 -12.0382 -13.7009
upperneck -6.63374 -16.3955 25.7074
head 2.28554 -8.67511 9.21631
rclavicle -9.85972e-014 -2.54444e-014
rhumerus -4.28358 18.6823 -80.0092
rradius 70.5553
rwrist 1.62489
rhand -35.1567 37.6574
rfingers 7.12502
rthumb -8.29602 7.84033
lclavicle -9.85972e-014 -2.54444e-014
lhumerus 8.20997 -26.2068 54.3501
lradius 86.8756
lwrist -7.40125
lhand -7.17377 17.7933
lfingers 7.12502
lthumb 18.7037 46.9141
rfemur -49.8875 5.57671 7.23393
rtibia 98.3407
rfoot 0.349087 -16.1033
rtoes 7.05348
lfemur -46.7591 21.8878 12.8386
ltibia 69.6141
lfoot 22.18 -1.17556
ltoes 19.3323
517
root 7.7348 10.321 12.8175 141.364 -12.2874 187.94
lowerback 43.5112 11.7361 -1.87008
upperback 16.8977 6.51468 -2.60208
thorax -1.30526 0.197321 -4.10841
lowerneck -4.45551 -12.0434 -13.8863
upperneck -7.22657 -16.2627 25.4647
head 2.1252 -8.61791 9.1855
rclavicle -8.90555e-014 1.46306e-013
rhumerus -3.29003 18.8577 -79.1846
rradius 70.6683
rwrist 1.70605
rhand -35.2199 38.1646
rfingers 7.12502
rthumb -8.35697 8.34992
lclavicle -8.90555e-014 1.46306e-013
lhumerus 8.66991 -25.4763 54.8
lradius 86.7107
lwrist -7.67615
lhand -6.2235 16.7423
lfingers 7.12502
lthumb 19.6175 45.7725
rfemur -49.8977 5.08162 7.4181
rtibia 99.1806
rfoot -0.0496121 -16.5848
rtoes 7.73661
lfemur -46.5256 21.7433 12.6396
ltibia 69.5111
lfoot 21.9275 -0.670161
ltoes 21.2682
